HIERARCHY
ROOT Hips
{
  OFFSET 2.26061 22.2878 23.7974
  CHANNELS 6 Xposition Yposition Zposition Zrotation Xrotation Yrotation
  JOINT LeftUpLeg
  {
    OFFSET 8.64259 1.95398 -2.38835
    CHANNELS 3 Zrotation Xrotation Yrotation
    JOINT LeftLeg
    {
      OFFSET 43.7702 0 0
      CHANNELS 3 Zrotation Xrotation Yrotation
      JOINT LeftFoot
      {
        OFFSET 40.6238 0 0
        CHANNELS 3 Zrotation Xrotation Yrotation
        JOINT LeftToeBase
        {
          OFFSET 12.7242 0 0
          CHANNELS 3 Zrotation Xrotation Yrotation
          End Site
          {
            OFFSET 0 0 0
          }
        }
      }
    }
  }
  JOINT RightUpLeg
  {
    OFFSET -8.2249 1.95398 -2.59336
    CHANNELS 3 Zrotation Xrotation Yrotation
    JOINT RightLeg
    {
      OFFSET 43.5653 0 0
      CHANNELS 3 Zrotation Xrotation Yrotation
      JOINT RightFoot
      {
        OFFSET 40.6238 0 0
        CHANNELS 3 Zrotation Xrotation Yrotation
        JOINT RightToeBase
        {
          OFFSET 12.7242 0 0
          CHANNELS 3 Zrotation Xrotation Yrotation
          End Site
          {
            OFFSET 0 0 0
          }
        }
      }
    }
  }
  JOINT Spine
  {
    OFFSET 0.165834 0.87714 6.61349
    CHANNELS 3 Zrotation Xrotation Yrotation
    JOINT Spine1
    {
      OFFSET 7.38963 1.71661e-005 0
      CHANNELS 3 Zrotation Xrotation Yrotation
      JOINT Spine2
      {
        OFFSET 11.9445 1.14441e-005 0
        CHANNELS 3 Zrotation Xrotation Yrotation
        JOINT Spine3
        {
          OFFSET 14.7254 4.19617e-005 0
          CHANNELS 3 Zrotation Xrotation Yrotation
          JOINT Spine4
          {
            OFFSET 10.9679 0 0
            CHANNELS 3 Zrotation Xrotation Yrotation
            JOINT RightShoulder
            {
              OFFSET 2.46616 -1.6653 3.69651
              CHANNELS 3 Zrotation Xrotation Yrotation
              JOINT RightArm
              {
                OFFSET 13.0012 0 0
                CHANNELS 3 Zrotation Xrotation Yrotation
                JOINT RightForeArm
                {
                  OFFSET 28.7848 1.52588e-005 0
                  CHANNELS 3 Zrotation Xrotation Yrotation
                  JOINT RightHand
                  {
                    OFFSET 26.5688 1.52588e-005 0
                    CHANNELS 3 Zrotation Xrotation Yrotation
                    End Site
                    {
                      OFFSET 0 0 0
                    }
                  }
                }
              }
            }
            JOINT LeftShoulder
            {
              OFFSET 2.38034 -1.29275 -3.7523
              CHANNELS 3 Zrotation Xrotation Yrotation
              JOINT LeftArm
              {
                OFFSET 16.3182 6.10351e-005 0
                CHANNELS 3 Zrotation Xrotation Yrotation
                JOINT LeftForeArm
                {
                  OFFSET 27.0901 0 0
                  CHANNELS 3 Zrotation Xrotation Yrotation
                  JOINT LeftHand
                  {
                    OFFSET 24.5451 1.52588e-005 0
                    CHANNELS 3 Zrotation Xrotation Yrotation
                    End Site
                    {
                      OFFSET 0 0 0
                    }
                  }
                }
              }
            }
            JOINT Neck
            {
              OFFSET 5.0226 -0.0266342 0
              CHANNELS 3 Zrotation Xrotation Yrotation
              JOINT Head
              {
                OFFSET 6.69363 2.86102e-005 0
                CHANNELS 3 Zrotation Xrotation Yrotation
                End Site
                {
                  OFFSET 0 0 0
                }
              }
            }
          }
        }
      }
    }
  }
}
MOTION
Frames:	15
Frame Time:	0.0416667
289.829 86.37 202.826 85.6519 -54.372 80.7221 -161.938 42.3966 88.7631 -54.8976 72.1258 -13.4359 70.9272 12.6905 46.3789 18.5972 -15.8531 25.3458 -171.702 26.1482 88.2713 -76.4536 7.03756 -11.8354 73.6226 -1.88216 -2.84188 60.4359 0.216774 -6.41778 0.0970976 7.83609 -89.7102 11.2006 0.328029 0.544618 -0.470413 0.351683 0.529639 -23.0047 0.149177 0.61802 -2.9921 0.149182 0.618022 92.9423 -50.0667 -96.2887 17.8579 -9.84515 14.9932 -13.8929 -14.5933 -67.348 -16.0307 -0.838378 0.61032 -100.39 -52.5409 64.3701 -32.7268 9.45065 30.7213 -14.0263 -10.0006 -56.3444 36.9213 0.722607 -2.0925 8.09085 -0.554795 4.94739 2.97143 -1.42084 0.405075 
283.681 87.106 198.937 85.2925 -53.4264 79.7136 -160.971 39.3604 86.4992 -65.6351 70.7944 -11.8542 69.7527 19.164 50.7274 17.361 -17.8592 26.4352 -172.955 30.8568 88.5752 -74.4189 11.4876 -10.1825 78.8393 -5.3755 -4.05188 47.5816 0.891797 -1.3064 -0.0625423 7.88775 -89.6417 11.098 0.0418736 0.709094 -0.573129 0.0730253 0.706554 -23.1069 -0.173176 0.68889 -3.0942 -0.173171 0.688896 92.3943 -50.9415 -96.97 18.5264 -8.90338 15.432 -12.9067 -19.5362 -58.8092 -13.108 -1.00746 2.65593 -101.48 -53.3293 63.131 -27.4911 9.0935 24.9958 -14.255 -10.3574 -55.5468 39.6104 0.961838 -1.62514 7.45814 -0.0103237 4.7436 4.12332 -0.772113 1.0835 
279.007 88.2826 195.933 83.0517 -52.2282 78.912 -160.926 35.9235 85.229 -76.1021 64.291 -8.50511 67.6501 24.0876 53.5421 4.58609 -29.5622 19.2307 -171.622 34.3552 89.6714 -71.603 9.5477 -9.47527 77.8534 -7.62313 -4.03972 40.9441 0.339196 -5.65032 -0.169226 7.84829 -89.8215 11.1777 -0.253768 0.380338 -0.493253 -0.236785 0.391133 -23.0283 -0.356346 0.286484 -3.01561 -0.356351 0.286483 92.9634 -51.6239 -95.9833 18.4358 -9.17854 15.0537 -11.7611 -26.2632 -50.4511 -8.55789 -0.984852 4.33383 -104.57 -55.3442 59.6505 -20.7141 7.97333 18.9258 -12.526 -9.18152 -55.9187 40.3405 1.04415 -1.46804 9.63685 0.787087 5.19659 3.8018 -0.138909 1.56545 
274.711 90.2887 193.026 83.2328 -51.5878 80.1595 -160.539 31.2917 84.3252 -83.6512 45.9271 -3.87732 70.2137 28.7854 44.4489 -28.8031 -47.362 -2.30693 -171.576 35.1189 90.7231 -65.8017 8.10545 -8.53473 71.1611 -6.76349 -3.39038 43.1576 0.254645 -7.56846 -0.368021 7.90067 -89.9231 11.0734 -0.696843 0.220159 -0.59743 -0.686477 0.25062 -23.1341 -0.730799 0.000534382 -3.12145 -0.730781 0.000539542 92.3735 -52.4294 -96.7293 18.6394 -9.21824 15.5187 -7.93583 -30.7547 -43.3829 -0.599103 -0.61005 7.13875 -105.921 -55.7546 58 -15.9482 5.64439 14.8079 -11.0534 -7.8609 -59.4509 40.1935 0.872086 -1.91185 11.1675 2.11631 4.60868 2.6858 1.18513 1.3206 
270.176 92.4069 190.01 84.3376 -51.5943 81.5438 -159.622 25.5565 85.7903 -83.8429 18.8939 -1.11624 88.1004 28.6912 7.70434 -54.4308 -57.7569 -16.0057 -170.974 35.2961 91.0844 -59.7816 5.54678 -7.93435 67.0124 -7.00046 -3.81114 40.5448 0.285262 -7.8662 -0.556231 7.96308 -89.9322 10.9492 -1.07604 0.23692 -0.72132 -1.06456 0.284047 -23.26 -1.09748 -0.0974651 -3.2474 -1.09748 -0.0974665 91.7248 -52.9489 -97.6008 19.3455 -9.27047 17.5154 -9.5878 -36.2197 -41.6368 4.95992 -0.391454 5.65647 -105.452 -54.875 58.2747 -14.4916 1.96884 12.7672 -9.9439 -6.29357 -67.4622 36.7894 1.53965 0.210824 8.7589 3.01355 4.45696 5.43811 2.28088 2.02937 
266.09 93.043 186.943 82.4493 -52.3134 79.7249 -160.84 20.07 86.5898 -77.8465 11.993 -1.11477 98.2737 28.0549 -7.69816 -77.9111 -64.7358 -29.6603 -170.078 38.1633 90.4787 -56.5841 1.75837 -8.23505 62.2237 -4.89387 -2.85786 41.201 0.172689 -10.0958 -0.726234 7.90283 -89.757 11.0719 -1.33286 0.612322 -0.598566 -1.30464 0.670389 -23.139 -1.45526 0.183356 -3.12635 -1.45527 0.18335 91.8995 -54.1358 -97.1223 19.7007 -10.856 20.3361 -9.62495 -36.0199 -43.1942 -2.51595 -0.764486 4.31152 -103.161 -54.1067 61.0946 -13.4519 -2.06163 12.7181 -3.42154 -4.52787 -81.9539 35.741 -0.0122472 -4.15356 9.57077 4.27388 3.18192 5.22862 3.79731 2.9258 
261.748 93.258 182.75 81.0037 -50.8157 79.8792 -163.503 17.6096 87.7369 -70.3639 18.7777 -1.59456 95.2881 30.3845 -0.39279 -75.631 -71.7883 -22.4268 -173.053 41.6277 91.379 -52.2349 1.52283 -7.39712 58.9038 -2.31727 -1.30738 37.6981 0.353969 -7.77321 -0.910961 7.9172 -89.8393 11.0447 -1.73888 0.486658 -0.625162 -1.71579 0.562737 -23.1697 -1.80474 -0.0586181 -3.15708 -1.80474 -0.0586178 91.6651 -54.7177 -97.359 21.0661 -12.9448 23.762 -5.09498 -28.2958 -44.6131 -6.33672 -0.74186 2.66092 -103.654 -53.5349 60.1936 -11.9038 -3.00179 12.9393 -1.20804 -3.09263 -92.9439 37.6219 1.07098 -1.14652 8.29819 4.76507 3.17746 7.36533 4.38405 3.05061 
257.216 95.0424 178.163 78.3772 -52.1238 78.3689 -164.153 14.9301 87.8945 -58.1903 20.6121 -2.68669 90.3801 27.9898 2.29767 -1.35522 -54.0812 40.5409 -174.741 41.9137 92.0731 -41.3791 -3.60007 -7.62875 54.9368 0.12907 0.330976 27.9171 0.30981 -5.29549 -0.775807 8.00662 -89.7635 10.8658 -1.43529 0.605927 -0.804507 -1.40723 0.668515 -23.3459 -1.55103 0.146461 -3.33329 -1.55104 0.146451 91.4286 -54.8676 -97.6746 22.6385 -12.5527 23.0306 -4.00415 -24.0619 -44.9192 -8.05231 -0.541485 -0.390103 -102.454 -52.3462 61.3984 -11.4579 -2.99073 12.1865 4.54525 -2.80167 -103.395 31.2289 0.870633 -1.2369 7.86935 5.18871 2.55336 8.70229 4.97582 3.23476 
253.435 97.9026 173.768 74.0512 -55.3466 75.3689 -167.907 13.2958 86.311 -44.71 12.9843 -3.07697 78.8517 18.6958 2.76077 22.6628 -11.3965 27.4461 -175.752 38.5217 92.6451 -26.7652 -16.3236 -8.17171 49.0313 3.01223 2.73919 26.1892 0.5028 -7.2641 -0.397652 8.08517 -89.6861 10.7052 -0.647142 0.683505 -0.965742 -0.616441 0.711322 -23.5014 -0.822649 0.457405 -3.4888 -0.822648 0.457406 91.6896 -55.491 -97.1822 21.84 -12.9474 19.8846 -3.46908 -21.5723 -46.5745 -11.0583 -0.44139 -1.76941 -100.386 -52.3751 64.3171 -11.045 0.324248 10.3835 7.47239 -4.7319 -105.398 28.4082 0.359346 -2.73562 10.898 5.53257 2.1268 7.08824 5.27521 3.23013 
249.792 99.779 169.559 69.6691 -56.368 73.1693 -173.469 15.9297 85.6569 -37.4489 8.84805 -0.828638 65.0126 6.73779 2.74785 43.092 12.5241 11.579 -175.409 36.6024 92.6625 -24.0672 -22.3329 -8.4993 55.4917 0.740108 0.801765 34.6823 0.412628 -8.72615 -0.142625 7.97784 -89.6673 10.9181 -0.130088 0.674156 -0.752998 -0.100257 0.679224 -23.287 -0.326681 0.603898 -3.2744 -0.326672 0.603891 91.003 -55.9367 -98.0868 21.3606 -14.6109 18.9067 -3.37486 -18.493 -53.3952 -14.1016 -0.634394 -0.435776 -98.4631 -50.9362 66.5556 -12.5829 4.71371 9.77508 6.67018 -4.90871 -102.404 30.7037 0.348344 -2.79416 9.01522 5.18285 0.382752 10.086 5.56103 4.65371 
245.393 99.9406 165.359 69.5535 -56.5243 73.494 -174.276 19.1961 86.3171 -36.5594 8.44062 -0.246364 61.4134 3.55514 2.054 49.2653 17.2526 6.54594 -174.886 36.1838 92.0319 -35.1908 -12.3711 -8.23315 63.4485 -2.40975 -1.33477 38.3057 0.298093 -9.51882 -0.000887035 7.90729 -89.6632 11.0584 0.154497 0.655435 -0.612719 0.183202 0.647992 -23.1465 -0.0496272 0.671567 -3.1339 -0.0496208 0.671568 90.8422 -55.2965 -98.4419 21.526 -14.6338 17.0106 -3.6264 -16.0596 -57.0105 -16.6499 -0.640787 -0.844351 -99.0635 -50.716 65.6155 -14.2143 7.72231 11.3084 7.36959 -4.72957 -95.9176 29.0281 1.01687 -0.366547 8.39653 5.29393 1.43089 8.71168 5.28352 3.15274 
240.616 99.7638 161.038 72.7357 -55.9655 76.3144 -173.204 22.6941 87.3174 -38.5588 8.7571 -0.7424 63.4472 4.82954 2.12649 42.6556 11.5655 7.08974 -176.727 33.6914 91.1972 -48.4272 -2.31142 -6.33221 66.3709 -3.94433 -2.17859 37.803 0.317967 -9.1426 0.0683628 7.90386 -89.6683 11.0649 0.289987 0.632115 -0.606193 0.317541 0.618728 -23.1402 0.0866074 0.690038 -3.12752 0.0866036 0.690033 92.574 -54.3538 -96.096 21.5503 -15.5172 13.3801 -3.02011 -14.2609 -59.7394 -20.0288 -0.573473 -1.71443 -99.699 -51.047 64.8185 -16.3792 10.0071 13.7522 7.52979 -3.54557 -87.0759 30.4765 0.0871426 -3.77502 7.90448 5.10892 2.59368 7.4167 4.66972 1.39655 
235.949 98.3824 156.849 75.8728 -55.1701 78.838 -173.413 27.5831 88.2665 -42.9042 13.3481 -0.581154 60.756 2.63728 3.68603 45.2338 13.5111 4.84714 -178.376 30.4723 89.963 -61.7508 0.877466 -5.28663 66.1798 -4.47695 -2.50401 42.1157 0.195556 -9.01851 0.075889 7.90496 -89.6209 11.0623 0.326903 0.722865 -0.608794 0.35842 0.707774 -23.1424 0.0945458 0.787705 -3.12973 0.0945555 0.787688 91.8965 -53.9051 -97.1689 21.2546 -14.6235 10.6246 -5.1043 -13.9125 -63.2635 -21.3524 -0.67418 -1.31325 -99.5207 -51.3102 65.1674 -19.1635 10.1937 16.2739 6.89275 -1.35614 -77.9769 31.3036 0.507756 -2.39317 7.03299 4.87658 2.84392 7.8639 4.27707 -0.0633738 
231.803 96.6905 153.039 79.3297 -55.3751 81.4464 -173.804 30.693 88.964 -45.4523 16.603 -0.410617 59.7041 1.73711 4.78709 44.4303 13.055 6.57208 -178.836 24.9067 88.3783 -70.777 -0.524381 -5.57835 64.608 -4.29989 -2.47715 41.8143 0.294198 -7.26328 0.383857 8.02705 -89.6091 10.8169 0.944894 0.688884 -0.853905 0.97429 0.646613 -23.3893 0.69417 0.941002 -3.37668 0.694171 0.941004 91.7296 -52.7727 -97.633 20.8254 -14.1372 8.42986 -6.6933 -11.9722 -68.1217 -24.2251 -0.617583 -1.85545 -100.166 -51.594 64.3495 -22.2239 12.1843 17.4039 -1.71331 -2.41526 -66.2781 34.2866 1.82696 1.4275 11.2166 4.79128 2.39754 3.02918 4.24244 0.977052 
228.066 95.288 149.366 83.2004 -55.1749 84.273 -174.464 31.4827 88.8613 -44.9897 17.2303 -0.0294037 59.7656 1.97742 6.19354 42.7254 11.3801 4.69992 -178.96 17.3264 86.3666 -73.9498 -2.19668 -6.54438 60.0296 -2.78828 -1.71227 43.0699 0.400398 -5.14735 0.632036 8.03973 -89.7693 10.7923 1.36503 0.332749 -0.877926 1.37837 0.272323 -23.4174 1.20192 0.727665 -3.40476 1.20192 0.727661 91.7033 -46.3632 -98.9754 24.2777 -14.9738 7.73238 -10.6439 -10.1766 -74.3532 -25.3068 -0.292769 -3.35787 -102.271 -53.0571 61.9242 -25.9974 14.0492 21.7248 -1.80207 -0.529658 -56.8717 36.6136 1.89163 1.23505 9.44025 3.75387 7.85292 3.11367 1.90961 -4.11838 
